# xmcd CD database file
#
# Track frame offsets:
#	150
#	18474
#	32821
#	51290
#	66728
#	81402
#	99875
#	114147
#	128225
#	149738
#	167729
#	185410
#	198861
#	218092
#	237464
#	251070
#	267294
#	282912
#	309092
#	322996
#	335719
#
# Disc length: 4656 seconds
#
# Revision: 3
# Processed by: cddbd v1.4PL0 Copyright (c) Steve Scherf et al.
# Submitted via: CDex 1.40Release
#
DISCID=3b122e15
DTITLE=Various Artist - Country Mix
DYEAR=1900
DGENRE=Country
TTITLE0=(This Ain't) No Thinkin' Thing
TTITLE1=Bobby Bare - Marie LaVeau(2)
TTITLE2=Bring On The Night
TTITLE3=Heaven in My Woman's Eyes
TTITLE4=Her old stompin ground
TTITLE5=I Don't Want To Miss A Thing
TTITLE6=I Left Something Turned On At Home
TTITLE7=If the world had a front porch
TTITLE8=I'm Tryin'
TTITLE9=Judds - Wynonna Judd - No One Else On Earth
TTITLE10=Kenny Rogers and Wynonna Judd - Mary Did You Know
TTITLE11=Lessons Learned
TTITLE12=Lonestar - I'm Already There
TTITLE13=Mac Davis - Lubbock Texas In My Rear View Mirror
TTITLE14=My Heart Is Lost To You
TTITLE15=Stars over texas
TTITLE16=Thank God For Believers
TTITLE17=Where Were You ( When The World Stopped Turning)
TTITLE18=While you sleep
TTITLE19=Your Love is a Miracle
TTITLE20=You Didn't Have As Much To Lose
EXTD=ID3G: 2
EXTT0=
EXTT1=
EXTT2=
EXTT3=
EXTT4=
EXTT5=
EXTT6=
EXTT7=
EXTT8=
EXTT9=
EXTT10=
EXTT11=
EXTT12=
EXTT13=
EXTT14=
EXTT15=
EXTT16=
EXTT17=
EXTT18=
EXTT19=
EXTT20=
PLAYORDER=
